<svg width="1024" height="1024" viewBox="0 0 1024 1024" fill="none" xmlns="http://www.w3.org/2000/svg"><mask id="a" mask-type="alpha" maskUnits="userSpaceOnUse" x="0" y="0" width="1024" height="1024"><circle cx="512" cy="512" r="512" fill="#C4C4C4"/></mask><g mask="url(#a)"><path fill="#000" fill-opacity="0" d="M0 0h1024v1024H0z"/><rect width="1024" height="1024" rx="48" fill="url(#b)"/><path fill-rule="evenodd" clip-rule="evenodd" d="M213.333 512c0 164.949 133.718 298.667 298.667 298.667 164.949 0 298.667-133.718 298.667-298.667 0-164.949-133.718-298.667-298.667-298.667-164.949 0-298.667 133.718-298.667 298.667zm222.341-96.237c-10.997 0-19.911 8.915-19.911 19.911v152.652c0 10.997 8.914 19.911 19.911 19.911h152.652c10.997 0 19.911-8.914 19.911-19.911V435.674c0-10.996-8.914-19.911-19.911-19.911H435.674z" fill="#fff"/></g><defs><linearGradient id="b" x1="512" y1="0" x2="512" y2="1024" gradientUnits="userSpaceOnUse"><stop stop-color="#2E66F8"/><stop offset="1" stop-color="#124ADB"/></linearGradient></defs></svg>