<svg xmlns="http://www.w3.org/2000/svg" style="enable-background:new 0 0 318.6 318.6" viewBox="0 0 318.6 318.6"><path fill="#E2761B" stroke="#E2761B" stroke-linecap="round" stroke-linejoin="round" d="m274.1 35.5-99.5 73.9L193 65.8z"/><g fill="#E4761B" stroke="#E4761B" stroke-linecap="round" stroke-linejoin="round"><path d="m44.4 35.5 98.7 74.6-17.5-44.3zM238.3 206.8l-26.5 40.6 56.7 15.6 16.3-55.3zM33.9 207.7 50.1 263l56.7-15.6-26.5-40.6z"/><path d="m103.6 138.2-15.8 23.9 56.3 2.5-2-60.5zM214.9 138.2l-39-34.8-1.3 61.2 56.2-2.5zM106.8 247.4l33.8-16.5-29.2-22.8zM177.9 230.9l33.9 16.5-4.7-39.3z"/></g><g fill="#D7C1B3" stroke="#D7C1B3" stroke-linecap="round" stroke-linejoin="round"><path d="m211.8 247.4-33.9-16.5 2.7 22.1-.3 9.3zM106.8 247.4l31.5 14.9-.2-9.3 2.5-22.1z"/></g><path fill="#233447" stroke="#233447" stroke-linecap="round" stroke-linejoin="round" d="m138.8 193.5-28.2-8.3 19.9-9.1zM179.7 193.5l8.3-17.4 20 9.1z"/><g fill="#CD6116" stroke="#CD6116" stroke-linecap="round" stroke-linejoin="round"><path d="m106.8 247.4 4.8-40.6-31.3.9zM207 206.8l4.8 40.6 26.5-39.7zM230.8 162.1l-56.2 2.5 5.2 28.9 8.3-17.4 20 9.1zM110.6 185.2l20-9.1 8.2 17.4 5.3-28.9-56.3-2.5z"/></g><g fill="#E4751F" stroke="#E4751F" stroke-linecap="round" stroke-linejoin="round"><path d="m87.8 162.1 23.6 46-.8-22.9zM208.1 185.2l-1 22.9 23.7-46zM144.1 164.6l-5.3 28.9 6.6 34.1 1.5-44.9zM174.6 164.6l-2.7 18 1.2 45 6.7-34.1z"/></g><path fill="#F6851B" stroke="#F6851B" stroke-linecap="round" stroke-linejoin="round" d="m179.8 193.5-6.7 34.1 4.8 3.3 29.2-22.8 1-22.9zM110.6 185.2l.8 22.9 29.2 22.8 4.8-3.3-6.6-34.1z"/><path fill="#C0AD9E" stroke="#C0AD9E" stroke-linecap="round" stroke-linejoin="round" d="m180.3 262.3.3-9.3-2.5-2.2h-37.7l-2.3 2.2.2 9.3-31.5-14.9 11 9 22.3 15.5h38.3l22.4-15.5 11-9z"/><path fill="#161616" stroke="#161616" stroke-linecap="round" stroke-linejoin="round" d="m177.9 230.9-4.8-3.3h-27.7l-4.8 3.3-2.5 22.1 2.3-2.2h37.7l2.5 2.2z"/><g fill="#763D16" stroke="#763D16" stroke-linecap="round" stroke-linejoin="round"><path d="m278.3 114.2 8.5-40.8-12.7-37.9-96.2 71.4 37 31.3 52.3 15.3 11.6-13.5-5-3.6 8-7.3-6.2-4.8 8-6.1zM31.8 73.4l8.5 40.8-5.4 4 8 6.1-6.1 4.8 8 7.3-5 3.6 11.5 13.5 52.3-15.3 37-31.3-96.2-71.4z"/></g><path fill="#F6851B" stroke="#F6851B" stroke-linecap="round" stroke-linejoin="round" d="m267.2 153.5-52.3-15.3 15.9 23.9-23.7 46 31.2-.4h46.5zM103.6 138.2l-52.3 15.3-17.4 54.2h46.4l31.1.4-23.6-46zM174.6 164.6l3.3-57.7 15.2-41.1h-67.5l15 41.1 3.5 57.7 1.2 18.2.1 44.8h27.7l.2-44.8z"/></svg>
