<svg viewBox="0 0 20 13" display="inline-block" focusable="false" role="presentation" class="css-ae4ctu"><path d="M4.09631 2.54825C7.35706 -0.816865 12.6438 -0.816865 15.9045 2.54825L16.297 2.95325C16.46 3.1215 16.46 3.3943 16.297 3.56255L14.9545 4.94797C14.873 5.0321 14.7408 5.0321 14.6593 4.94797L14.1193 4.39064C11.8445 2.04306 8.15635 2.04306 5.88157 4.39064L5.30323 4.98749C5.22171 5.07162 5.08954 5.07162 5.00802 4.98749L3.66558 3.60208C3.50254 3.43382 3.50254 3.16103 3.66558 2.99277L4.09631 2.54825ZM18.6808 5.41343L19.8756 6.64646C20.0387 6.81471 20.0387 7.08751 19.8756 7.25576L14.4883 12.8156C14.3252 12.9839 14.0609 12.9839 13.8979 12.8156C13.8979 12.8156 13.8979 12.8156 13.8979 12.8156L10.0742 8.86963C10.0335 8.82757 9.9674 8.82757 9.92665 8.86963C9.92665 8.86963 9.92664 8.86963 9.92664 8.86963L6.10312 12.8156C5.94008 12.9839 5.67574 12.9839 5.51271 12.8156C5.5127 12.8156 5.5127 12.8156 5.5127 12.8156L0.125208 7.25569C-0.0378297 7.08744 -0.0378297 6.81464 0.125208 6.64638L1.31999 5.41336C1.48303 5.24511 1.74736 5.24511 1.9104 5.41336L5.73407 9.35941C5.77483 9.40148 5.84091 9.40148 5.88167 9.35941C5.88167 9.35941 5.88167 9.35941 5.88167 9.35941L9.70514 5.41336C9.86818 5.2451 10.1325 5.2451 10.2956 5.41335C10.2956 5.41335 10.2956 5.41335 10.2956 5.41335L14.1192 9.35941C14.16 9.40147 14.2261 9.40147 14.2668 9.35941L18.0904 5.41343C18.2535 5.24518 18.5178 5.24518 18.6808 5.41343Z" fill="#3B99FC"></path></svg>
