<svg xmlns="http://www.w3.org/2000/svg" viewBox="0 0 1000 1000">
<path d="M276.6,277.1C384.8,168.8,550.2,153.4,675.2,230c-42.4,41.9-91.2,90.9-91.2,90.9c-34.3,41.1,4.1,64.8,23.6,64.1h228.4h22h66.4c12,0,21.8-9.8,21.8-22V48.7c1.5-28.6-30.1-56.5-62.8-24.5c0,0-53.9,52.6-91,89.4C602.2-25.4,333.8-9.6,161.8,162.3C61.3,262.7,14.7,395.8,20.3,527.2h162.5C177,437.5,207.9,345.8,276.6,277.1"/><path d="M817.2,472.7c5.8,89.9-25.2,181.5-93.8,250.3c-108.3,108.1-273.6,123.6-398.7,47.1c42.4-41.9,91.2-90.9,91.2-90.9c34.2-41.1-4.3-64.7-23.7-64.1H163.7h-21.8H75.5c-12.2,0-22,9.8-22,21.8v314.2c-1.3,28.7,30.3,56.6,62.8,24.5c0,0,53.9-52.4,91.2-89.4c190.4,139.2,458.8,123.4,630.6-48.6c100.4-100.2,147.2-233.5,141.7-365H817.2z"/>
</svg>
