<svg viewBox="0 0 1614 565" fill="none" xmlns="http://www.w3.org/2000/svg">
<path d="M1431.66 564.196H1358.87L1427.55 414.484L1305.45 162.614H1382.35L1464.53 343.443L1541.43 162.614H1613.64L1431.66 564.196Z" fill="white"/>
<path d="M1280.71 162.614L1163.31 283.558L1283.06 448.536H1199.7L1115.76 331.701L1080.54 368.689V448.536H1013.03V23.4689H1080.54V278.274L1190.31 162.614H1280.71Z" fill="white"/>
<path d="M941.085 129.736L877.687 149.697C873.578 123.865 851.858 85.7025 796.091 85.7025C753.826 85.7025 724.475 113.884 724.475 145.588C724.475 172.008 740.911 191.969 773.197 199.015L833.073 211.344C906.451 226.022 945.781 272.403 945.781 331.114C945.781 395.696 893.536 457.343 798.439 457.343C692.776 457.343 644.053 389.238 637.596 329.353L703.342 310.565C707.451 354.011 738.563 393.935 798.439 393.935C848.336 393.935 874.165 368.689 874.165 336.398C874.165 309.391 854.206 287.668 818.398 280.036L759.696 267.706C696.298 254.79 654.033 213.105 654.033 150.872C654.033 81.0056 718.018 23.4689 795.504 23.4689C893.536 23.4689 931.692 83.354 941.085 129.736Z" fill="white"/>
<path d="M46.2668 99.8945C76.255 58.6192 118.54 27.8972 167.062 12.1314C215.584 -3.63431 267.852 -3.6343 316.374 12.1314L241.718 241.898L46.2668 99.8945Z" fill="white"/>
<path d="M26.4588 351.578C12.0554 323.31 3.36092 292.482 0.871715 260.853C-1.6175 229.225 2.14734 197.416 11.9513 167.242L241.718 241.898L26.4588 351.578Z" fill="white"/>
<path d="M351.424 26.6524C408.511 55.7484 451.701 106.33 471.494 167.271L241.718 241.898L351.424 26.6524Z" fill="white"/>
<path d="M483.309 241.898C483.309 280.024 474.286 317.608 456.977 351.578C439.668 385.548 414.566 414.94 383.722 437.349L241.718 241.898H483.309Z" fill="white"/>
<path d="M316.374 471.665C267.852 487.431 215.584 487.431 167.062 471.665L241.718 241.898L316.374 471.665Z" fill="white"/>
<path d="M99.7143 437.349C79.2045 422.448 61.168 404.412 46.2667 383.902L241.718 241.898L99.7143 437.349Z" fill="white"/>
</svg>
