<svg xmlns="http://www.w3.org/2000/svg" fill="none" viewBox="0 0 484 484"><path fill="url(#a)" d="M46.549 99.994a241.6 241.6 0 0 1 24.62-28.827l3.003 1.655 166.25 167.143 1.578 2.033z"/><path fill="url(#b)" d="M71.17 71.167A241.6 241.6 0 0 1 204.206 3.381l1.671 4.594L242 238.795v3.203z"/><path fill="url(#c)" d="M351.706 26.752a241.6 241.6 0 0 1 32.303 19.798l-.433 3.763-140.701 190.985-.875.7z"/><path fill="url(#d)" d="M483.591 241.997c0 25.352-3.99 50.546-11.824 74.657l-5.715.92-222.275-74.671-1.777-.906z"/><path fill="url(#e)" d="M471.768 316.648a241.6 241.6 0 0 1-34.314 67.349l-5.506-.934-188.806-139.879-1.142-1.187z"/><path fill="url(#f)" d="M316.656 471.764a241.6 241.6 0 0 1-112.449 8.85l-1.508-4.631 38.212-229.875 1.089-4.111z"/><path fill="url(#g)" d="M204.207 480.614a241.6 241.6 0 0 1-36.862-8.85l-.667-5.587 73.945-221.659 1.377-2.521z"/><path fill="url(#h)" d="M167.344 471.764a241.6 241.6 0 0 1-67.347-34.315v-4.373L239.533 244.46l2.467-2.463z"/><path fill="url(#i)" d="M26.741 351.678A241.6 241.6 0 0 1 .409 241.998l3.09-1.14h230.685l7.816 1.14z"/><path fill="url(#j)" d="M204.193 3.383a241.6 241.6 0 0 1 112.467 8.849L242 241.997z"/><path fill="url(#k)" d="M384.005 46.547a241.6 241.6 0 0 1 87.759 120.787L242 241.997z"/><path fill="url(#l)" d="M99.997 437.449a241.6 241.6 0 0 1-53.448-53.448L242 241.997z"/><path fill="url(#m)" d="M.41 241.997c0-25.351 3.99-50.545 11.824-74.655L242 241.997z"/><path fill="url(#n)" d="M437.459 383.991a241.6 241.6 0 0 1-53.445 53.45L242 241.997z"/><defs><radialGradient id="a" cx="0" cy="0" r="1" gradientTransform="rotate(220.809 166.01 75.989)scale(243.055)" gradientUnits="userSpaceOnUse"><stop stop-color="#a273ff"/><stop offset="1" stop-color="#4331e9"/><stop offset="1" stop-color="#4331e9"/></radialGradient><radialGradient id="b" cx="0" cy="0" r="1" gradientTransform="rotate(-98.995 224.353 17.645)scale(247.39)" gradientUnits="userSpaceOnUse"><stop stop-color="#f7a7f9"/><stop offset="1" stop-color="#00ddfb"/></radialGradient><radialGradient id="c" cx="0" cy="0" r="1" gradientTransform="translate(242 241.998)scale(-247.56)" gradientUnits="userSpaceOnUse"><stop stop-color="#fff3d0"/><stop offset="1" stop-color="#ffc044"/></radialGradient><radialGradient id="d" cx="0" cy="0" r="1" gradientTransform="matrix(0 -247.144 247.141 0 242 241.997)" gradientUnits="userSpaceOnUse"><stop stop-color="#a273ff"/><stop offset="0.5" stop-color="#9faeff"/><stop offset="1" stop-color="#aaf2e1"/></radialGradient><radialGradient id="e" cx="0" cy="0" r="1" gradientTransform="rotate(35.99 -251.503 493.505)scale(246.434)" gradientUnits="userSpaceOnUse"><stop stop-color="#0075ff"/><stop offset="1" stop-color="#00ddfb"/></radialGradient><radialGradient id="f" cx="0" cy="0" r="1" gradientTransform="matrix(0 247.342 -247.341 0 242 241.997)" gradientUnits="userSpaceOnUse"><stop stop-color="#ffcd6b"/><stop offset="1" stop-color="#eb5edf"/></radialGradient><radialGradient id="g" cx="0" cy="0" r="1" gradientTransform="rotate(90 .001 241.999)scale(247.853)" gradientUnits="userSpaceOnUse"><stop stop-color="#d5faff"/><stop offset="1" stop-color="#00ddfb"/></radialGradient><radialGradient id="h" cx="0" cy="0" r="1" gradientTransform="rotate(114.172 42.68 199.32)scale(264.809 264.808)" gradientUnits="userSpaceOnUse"><stop stop-color="#ffd2b9"/><stop offset="0.289583" stop-color="#c99bed"/><stop offset="1" stop-color="#0075ff"/></radialGradient><radialGradient id="i" cx="0" cy="0" r="1" gradientTransform="translate(242 241.997)scale(-321.802)" gradientUnits="userSpaceOnUse"><stop stop-color="#6d28ff"/><stop offset="1" stop-color="#f7a7f9"/></radialGradient><radialGradient id="j" cx="0" cy="0" r="1" gradientTransform="rotate(-90 241.999 -.001)scale(247.141)" gradientUnits="userSpaceOnUse"><stop stop-color="#a273ff"/><stop offset="0.5" stop-color="#9faeff"/><stop offset="1" stop-color="#aaf2e1"/></radialGradient><radialGradient id="k" cx="0" cy="0" r="1" gradientTransform="matrix(0 247.342 -247.341 0 242 241.997)" gradientUnits="userSpaceOnUse"><stop stop-color="#ffcd6b"/><stop offset="1" stop-color="#eb5edf"/></radialGradient><radialGradient id="l" cx="0" cy="0" r="1" gradientTransform="rotate(220.809 166.01 75.989)scale(243.055)" gradientUnits="userSpaceOnUse"><stop stop-color="#a273ff"/><stop offset="1" stop-color="#4331e9"/><stop offset="1" stop-color="#4331e9"/></radialGradient><radialGradient id="m" cx="0" cy="0" r="1" gradientTransform="translate(242 241.998)scale(-247.56)" gradientUnits="userSpaceOnUse"><stop stop-color="#fff3d0"/><stop offset="1" stop-color="#ffc044"/></radialGradient><radialGradient id="n" cx="0" cy="0" r="1" gradientTransform="rotate(220.809 166.01 75.989)scale(243.055)" gradientUnits="userSpaceOnUse"><stop stop-color="#a273ff"/><stop offset="1" stop-color="#4331e9"/><stop offset="1" stop-color="#4331e9"/></radialGradient></defs></svg>